<?xml version="1.0" encoding="UTF-8" standalone="no"?>
<svg
   xmlns:dc="http://purl.org/dc/elements/1.1/"
   xmlns:cc="http://creativecommons.org/ns#"
   xmlns:rdf="http://www.w3.org/1999/02/22-rdf-syntax-ns#"
   xmlns:svg="http://www.w3.org/2000/svg"
   xmlns="http://www.w3.org/2000/svg"
   xmlns:sodipodi="http://sodipodi.sourceforge.net/DTD/sodipodi-0.dtd"
   xmlns:inkscape="http://www.inkscape.org/namespaces/inkscape"
   width="1050.8019"
   height="175.1268"
   viewBox="0 0 1050.8019 175.1268"
   version="1.1"
   id="svg1906"
   sodipodi:docname="list_logo.svg"
   inkscape:version="1.0.2-2 (e86c870879, 2021-01-15)">
  <metadata
     id="metadata1912">
    <rdf:RDF>
      <cc:Work
         rdf:about="">
        <dc:format>image/svg+xml</dc:format>
        <dc:type
           rdf:resource="http://purl.org/dc/dcmitype/StillImage" />
        <dc:title />
      </cc:Work>
    </rdf:RDF>
  </metadata>
  <defs
     id="defs1910" />
  <sodipodi:namedview
     pagecolor="#ffffff"
     bordercolor="#666666"
     borderopacity="1"
     objecttolerance="10"
     gridtolerance="10"
     guidetolerance="10"
     inkscape:pageopacity="0"
     inkscape:pageshadow="2"
     inkscape:window-width="1366"
     inkscape:window-height="705"
     id="namedview1908"
     showgrid="false"
     inkscape:zoom="1.5021831"
     inkscape:cx="242.72082"
     inkscape:cy="53.278109"
     inkscape:window-x="-8"
     inkscape:window-y="-8"
     inkscape:window-maximized="1"
     inkscape:current-layer="svg1906"
     inkscape:document-rotation="0" />
  <g
     stroke="#a31212"
     stroke-linecap="round"
     stroke-linejoin="round"
     stroke-width="1.5"
     id="g1888">
    <path
       fill="#ffc8d9"
       d="m 19.121,57.784 -1.3,9 q -0.1,1.95 -5.75,5 -3.3,5.95 5.35,16.4 l 22.45,-10.95 q 2.8,-4.8 2.35,-9.15 l -5.6,2.45 5.6,-2.45 q -0.15,-1.45 -0.65,-2.85 -10.15,-18.65 -22.45,-7.45 z"
       id="path1882"
       style="fill:#ff9e9e;fill-opacity:1" />
    <path
       fill="#e40000"
       d="m 116.421,33.534 c -3.26667,-3.5 -7.53333,-6.516667 -12.8,-9.05 -13.666667,-4.533333 -25.95,-2.183333 -36.85,7.05 -8.266667,8.766667 -11.216667,17.183333 -8.85,25.25 1.766667,0.5 4.25,0.75 7.45,0.75 -3.2,0 -5.683333,-0.25 -7.45,-0.75 -0.866667,-0.233333 -1.566667,-0.516667 -2.1,-0.85 -18.266667,-7.133333 -30.5,-6.516667 -36.7,1.85 8.2,-7.466667 15.683333,-4.983333 22.45,7.45 0.333333,0.933333 0.55,1.883333 0.65,2.85 0.3,2.9 -0.483333,5.95 -2.35,9.15 l 13.05,18.15 14.1,-21.4 3.7,-5.65 -3.7,5.65 c 11.566667,11.1 24.183333,13.3 37.85,6.6 6.67345,-3.295936 11.61775,-7.330657 14.8329,-12.104162 3.35314,-4.978384 4.8255,-10.76033 4.4171,-17.345838 -0.53333,-6.8 -3.1,-12.666667 -7.7,-17.6 m -33.3,-4.9 c 1.666667,0 3.416667,0.75 5.25,2.25 1.9,1.566667 2.85,3.166667 2.85,4.8 0,1.5 -0.216667,2.55 -0.65,3.15 -0.533333,0.7 -1.5,1.05 -2.9,1.05 -0.266667,0 -0.75,-0.166667 -1.45,-0.5 -0.7,-0.366667 -1.216667,-0.166667 -1.55,0.6 -2.4,4.166667 -3.816667,6.483333 -4.25,6.95 -0.966667,1.033333 -1.983333,1.55 -3.05,1.55 -1.833333,0 -3.683333,-0.733333 -5.55,-2.2 -1.9,-1.466667 -2.883333,-3.033333 -2.95,-4.7 -0.06667,-1.666667 1.966667,-4.233333 6.1,-7.7 4.1,-3.5 6.816667,-5.25 8.15,-5.25 m 15.95,11.05 c -0.633333,-0.866667 -0.95,-2.033333 -0.95,-3.5 0.333333,-1.8 0.766667,-2.733333 1.3,-2.8 0.533333,-0.06667 0.96667,-0.1 1.3,-0.1 1.16667,0 2.25,0.466667 3.25,1.4 1.13333,1 1.7,2.25 1.7,3.75 0,0.833333 -0.35,1.5 -1.05,2 -0.63333,0.433333 -1.46667,0.65 -2.5,0.65 -1.33333,0 -2.35,-0.466667 -3.05,-1.4 m 57.65,0.55 c -0.26667,0.8 -0.78333,2.1 -1.55,3.9 -0.8,1.8 -1.05,3.316667 -0.75,4.55 0.33333,1.3 1.56667,2.733333 3.7,4.3 2.2,1.633333 3.51667,3.033333 3.95,4.2 0.3,0.9 0.31667,1.866667 0.05,2.9 -0.23333,0.966667 -0.66667,1.866667 -1.3,2.7 -0.73333,0.866667 -1.7,1.65 -2.9,2.35 0.13333,-0.03333 0.26667,-0.05 0.4,-0.05 10.13333,-0.533333 9.6,-8.816667 -1.6,-24.85 m -3.9,-20.45 c -0.76667,-1.1 -1.53333,-2.3 -2.3,-3.6 -0.76667,-1.3 -2.2,-2.583333 -4.3,-3.85 -2.1,-1.3 -4.03333,-1.8 -5.8,-1.5 -1.76667,0.3 -3.18333,1.133333 -4.25,2.5 -1.1,1.333333 -3.16667,4.433333 -6.2,9.3 -1.9,3 -4,5.433333 -6.3,7.3 -2.33333,1.866667 -4.75,3.066667 -7.25,3.6 4.6,4.933333 7.16667,10.8 7.7,17.6 4.8,0.8 8.2,1.7 10.2,2.7 2,0.966667 3.86667,2.633333 5.6,5 1.73333,2.366667 3.06667,3.766667 4,4.2 0.93333,0.433333 2.56667,1.2 4.9,2.3 2.3,1.066667 4.23333,1.383333 5.8,0.95 1.56667,-0.466667 2.66667,-0.85 3.3,-1.15 1.2,-0.7 2.16667,-1.483333 2.9,-2.35 0.63333,-0.833333 1.06667,-1.733333 1.3,-2.7 0.26667,-1.033333 0.25,-2 -0.05,-2.9 -0.43333,-1.166667 -1.75,-2.566667 -3.95,-4.2 -2.13333,-1.566667 -3.36667,-3 -3.7,-4.3 -0.3,-1.233333 -0.05,-2.75 0.75,-4.55 0.76667,-1.8 1.28333,-3.1 1.55,-3.9 0.1,-0.3 0.16667,-0.533333 0.2,-0.7 0.23333,-1.4 0.05,-2.8 -0.55,-4.2 -0.6,-1.366667 -1.5,-2.466667 -2.7,-3.3 -1.33333,-0.8 -2.16667,-1.383333 -2.5,-1.75 -0.36667,-0.5 -0.56667,-1.1 -0.6,-1.8 l 2.75,-2.7 c 0.4,-0.433333 0.6,-1.066667 0.6,-1.9 0,-1.633333 -0.36667,-3 -1.1,-4.1 z"
       id="path1884"
       style="fill:#e40000;fill-opacity:1"
       sodipodi:nodetypes="cccccccccsccccccsccccscscccscsccccsscscsccccccccccccscsccccccsscccccccccsccccccsc" />
    <path
       fill="#ffffff"
       stroke="none"
       d="m 98.121,36.184 q 0,2.2 0.95,3.5 1.05,1.4 3.05,1.4 1.55,0 2.5,-0.65 1.05,-0.75 1.05,-2 0,-2.25 -1.7,-3.75 -1.5,-1.4 -3.25,-1.4 -0.5,0 -1.3,0.1 -0.8,0.1 -1.3,2.8 m -9.75,-5.3 q -2.75,-2.25 -5.25,-2.25 -2,0 -8.15,5.25 -6.2,5.2 -6.1,7.7 0.1,2.5 2.95,4.7 2.8,2.2 5.55,2.2 1.6,0 3.05,-1.55 0.65,-0.7 4.25,-6.95 0.5,-1.15 1.55,-0.6 1.05,0.5 1.45,0.5 2.1,0 2.9,-1.05 0.65,-0.9 0.65,-3.15 0,-2.45 -2.85,-4.8 z"
       id="path1886" />
  </g>
  <g
     stroke="#880031"
     stroke-linecap="round"
     stroke-linejoin="round"
     stroke-width="1.5"
     id="g1896">
    <path
       fill="#da0037"
       d="m 53.321,97.534 q -3.3,6.2 -3.7,12.45 -0.35,4 0.55,8.05 6.4,19.4 29.3,22.7 16.75,0.7 26.85,-8.85 -0.65,-2.65 -1.4,-4.6 0.75,1.95 1.4,4.6 0.4,1.6 0.75,3.5 0.55,2.75 1.6,8.3 2.35,10.3 7.5,14.75 3.55,3.05 7.15,2.7 l 0.6,-0.1 q 3.2,-0.4 6.65,-4.35 7.7,-8.2 8.25,-14.6 0.5,-6.45 -1.95,-10.25 -2.45,-3.8 -6.8,-6.9 1.2,-4.95 7.15,-9.9 5.2,-4.35 9.6,-4.5 -0.95,-1.75 -6.6,-1.85 -10.6,-0.25 -16.7,2.25 -5.25,2.15 -8.05,3.25 -0.45,0.2 -0.85,0.35 -2.85,1 -6.3,0.65 3.45,0.35 6.3,-0.65 0.4,-0.15 0.85,-0.35 3.65,-13.05 -7.55,-24 -7.75,-7.5 -18.75,-9.55 -11.15,-2.05 -20.75,2.4 -6.35,2.9 -10.8,8.15 -2.45,2.85 -4.3,6.35 m 3.65,14.05 q -1.15,-2 1.45,-9.8 2.6,-7.85 4.25,-8.95 2.05,-1.45 5.35,-1.1 3.45,0.3 4.65,2.35 1.05,1.85 0.9,2.95 -0.15,1.3 -1.9,2.5 -0.3,0.25 -1.45,0.45 -1.1,0.15 -0.95,1.35 -0.1,7.2 -0.25,8.1 -0.5,2.15 -1.85,3.05 -2.25,1.55 -5.55,1.3 -3.4,-0.2 -4.65,-2.2 m 25.7,-25.55 q 2.1,0.25 3.1,2.1 0.65,1.05 0.15,2.25 -0.55,1.1 -1.85,2 -1.6,1.1 -3.05,0.55 -1.5,-0.55 -2.5,-2.35 -0.85,-2.55 -0.25,-3.05 0.65,-0.55 1.05,-0.85 1.45,-0.95 3.35,-0.65 m 29.7,44.5 7.7,6.15 -7.7,-6.15 m -80.2,-61.25 q -1.9,-0.15 -4.15,0.55 -1.4,0.5 -3.85,1.7 -3.05,1.5 -4.4,2.55 -2.2,1.65 -2.95,3.7 -0.5,1.45 -0.45,3.9 0.1,3.3 0.05,4 -0.3,2.4 -2.2,6.2 -2.3,4.4 -2.8,6.15 -1.6,5.25 0.6,11.05 2,5.45 6.55,9.45 4.8,4.15 9.35,4.15 3.15,-0.1 6.45,-2.35 1.85,-1.25 5.55,-4.65 3.25,-3 5.8,-4.35 2,-1.05 3.9,-1.35 0.4,-6.25 3.7,-12.45 1.85,-3.5 4.3,-6.35 -3.55,-0.95 -6.9,-3.45 -4.15,-3.05 -7.4,-7.95 -3.6,-5.4 -4.7,-6.65 -3.05,-3.45 -6.45,-3.85 m 10.7,32.75 q 3.15,0.05 5.2,0.25 -2.05,-0.2 -5.2,-0.25 -3.15,-0.05 -4.2,0 1.05,-0.05 4.2,0 z"
       id="path1890"
       style="fill:#da0037;fill-opacity:1" />
    <path
       fill="#f182aa"
       d="m 153.921,115.184 q -0.95,-1.85 -4.55,-3.45 -1.45,-0.65 -2.55,-1.2 -4.4,0.15 -9.6,4.5 -5.95,4.95 -7.15,9.9 4.35,3.1 6.8,6.9 2.45,3.8 1.95,10.25 -0.55,6.4 -8.25,14.6 -3.45,3.95 -6.65,4.35 l -0.6,0.1 q 0,0.45 0.2,0.95 0.6,1.6 2.05,2.1 1.95,0.65 5.75,-1 20.8,-9.3 28.5,-23.65 1.6,-2.9 1.75,-5.75 0.15,-3.35 -2,-5 -0.45,-0.35 -1.75,-1.05 -1.2,-0.65 -1.75,-1.2 -1.55,-1.5 -1.45,-5.4 0.15,-4.4 -0.7,-5.95 z"
       id="path1892"
       style="fill:#f182aa;fill-opacity:1" />
    <path
       fill="#ffffff"
       stroke="none"
       d="m 85.771,88.134 q -1,-1.85 -3.1,-2.1 -1.9,-0.3 -3.35,0.65 -0.4,0.3 -1.05,0.85 -0.6,0.5 0.25,3.05 1,1.8 2.5,2.35 1.45,0.55 3.05,-0.55 1.3,-0.9 1.85,-2 0.5,-1.2 -0.15,-2.25 m -27.35,13.65 q -2.6,7.8 -1.45,9.8 1.25,2 4.65,2.2 3.3,0.25 5.55,-1.3 1.35,-0.9 1.85,-3.05 0.15,-0.9 0.25,-8.1 -0.15,-1.2 0.95,-1.35 1.15,-0.2 1.45,-0.45 1.75,-1.2 1.9,-2.5 0.15,-1.1 -0.9,-2.95 -1.2,-2.05 -4.65,-2.35 -3.3,-0.35 -5.35,1.1 -1.65,1.1 -4.25,8.95 z"
       id="path1894"
       style="fill:#ffffff;fill-opacity:1" />
  </g>
  <text
     x="604.20343"
     y="136.71561"
     fill="#dddddd"
     stroke-width="1.3007"
     font-family="'Trebuchet MS'"
     font-size="62.4353px"
     id="text1898"
     style="font-size:53.3333px">Offline (Revision)</text>
  <g
     stroke="#000000"
     stroke-linecap="round"
     stroke-linejoin="round"
     stroke-width="2"
     transform="matrix(1.32445,0,0,1.32445,-96.8482,-53.9889)"
     id="g1904">
    <path
       fill="#e40000"
       d="m 240.35,66.4 -14.4,33.65 -12.05,-16.5 -15.25,15.25 -9.5,-33.85 -22.05,1.7 17.35,68.35 15.25,-1.1 9.75,-18.15 6.75,18.15 h 17.15 L 263.4,71.5 Z"
       id="path1900"
       style="fill:#e40000;fill-opacity:1" />
    <path
       fill="#da0037"
       d="m 296.4,91.8 0.85,-8 q -9.85,-1.5 -17.3,3.85 l 0.8,-3.85 h -9.7 l -11,53.8 h 9.3 l 5.7,-26.9 q 5.1,-17.85 21.35,-18.9 m 37.25,38.3 q 9.65,-11.8 10.15,-28.95 0.6,-17.3 -18.4,-17.15 -15.75,0.1 -18.8,12.9 h 8.85 q 1.95,-5.25 10.7,-4.75 8.7,0.5 8.15,10.65 h -17.15 q -19.25,-0.05 -21.35,16.3 -1.35,16.35 16.3,18.4 0.75,0.05 1.45,0.1 0.55,0 1.05,0.05 10.55,0.05 19.05,-7.55 m -17.1,-1 q -13.25,0.35 -11.85,-10 1.3,-7.2 9.3,-8.45 h 19.25 q -2.75,18.05 -16.7,18.45 m 83,-22.8 q 1.45,-9.55 -4.7,-18 -6.2,-8.5 -21.35,-4.75 -15.2,3.75 -21.05,21.5 -1.8,5.8 -10.5,47.9 h 9.4 l 4.95,-20.65 q 6.75,6.3 17.6,4.35 12.4,-2.05 19.05,-11.8 5.1,-9.05 6.6,-18.55 m -19.1,-15.1 q 12.05,1.1 9.3,15.45 -4.05,20.45 -16.3,22.4 -15.1,0.8 -12.15,-17.8 4.2,-20.3 19.15,-20.05 m 68.15,-2.9 q -6.2,-8.5 -21.35,-4.75 -15.2,3.75 -21.05,21.5 -1.8,5.8 -10.5,47.9 h 9.4 l 4.95,-20.65 q 6.75,6.3 17.6,4.35 12.4,-2.05 19.05,-11.8 5.1,-9.05 6.6,-18.55 1.45,-9.55 -4.7,-18 m -33.55,22.95 q 4.2,-20.3 19.15,-20.05 12.05,1.1 9.3,15.45 -4.05,20.45 -16.3,22.4 -15.1,0.8 -12.15,-17.8 m 84.9,3.4 q 1.95,-8 2.15,-13.9 0.7,-15.85 -13.75,-17.05 -14.45,-1.25 -22.8,6 -0.8,0.7 -1.5,1.45 -2.7,2.8 -4.55,6.95 -1.45,3.2 -2.35,7.15 -1.7,5.45 -2,14.65 -0.35,9.15 5.75,14.3 4.2,3.5 11.75,3.5 17.6,-0.05 19.5,-13.1 h -9.1 q -1.65,6.15 -10.6,5.2 -8.95,-0.95 -8.05,-15.15 h 35.55 m -34.05,-8 Q 469.35,92 482.4,91.8 q 12.35,1 10.35,14.85 H 465.9 m 73.65,-14.85 0.85,-8 q -9.85,-1.5 -17.3,3.85 l 0.8,-3.85 h -9.7 l -11,53.8 h 9.3 l 5.7,-26.9 q 5.1,-17.85 21.35,-18.9 z"
       id="path1902"
       style="fill:#da0037;fill-opacity:1" />
  </g>
</svg>
